<svg xmlns="http://www.w3.org/2000/svg" xmlns:xlink="http://www.w3.org/1999/xlink" width="500" zoomAndPan="magnify" viewBox="0 0 375 374.999991" height="500" preserveAspectRatio="xMidYMid meet" version="1.0"><defs><g/><clipPath id="e043a23bcd"><rect x="0" width="214" y="0" height="363"/></clipPath></defs><rect x="-37.5" width="450" fill="#ffffff" y="-37.499999" height="449.999989" fill-opacity="1"/><rect x="-37.5" width="450" fill="#ffffff" y="-37.499999" height="449.999989" fill-opacity="1"/><path stroke-linecap="butt" transform="matrix(0.75, 0, 0, 0.75, 0.0000045, -4.592548)" fill="none" stroke-linejoin="miter" d="M -0.000006 31.4984 L 449.156273 31.4984 " stroke="#3b5e52" stroke-width="63" stroke-opacity="1" stroke-miterlimit="4"/><path stroke-linecap="butt" transform="matrix(0.75, 0, 0, 0.75, 36.927519, 332.342556)" fill="none" stroke-linejoin="miter" d="M -0.00231737 31.501594 L 450.763337 31.501594 " stroke="#3b5e52" stroke-width="63" stroke-opacity="1" stroke-miterlimit="4"/><path stroke-linecap="butt" transform="matrix(0, -0.75, 0.75, 0, -4.59616, 374.996342)" fill="none" stroke-linejoin="miter" d="M 0.0003307 31.498007 L 456.385777 31.498007 " stroke="#3b5e52" stroke-width="63" stroke-opacity="1" stroke-miterlimit="4"/><path stroke-linecap="butt" transform="matrix(0, -0.75, 0.75, 0, 331.135939, 343.361814)" fill="none" stroke-linejoin="miter" d="M -0.001956 31.501042 L 457.820991 31.501042 " stroke="#3b5e52" stroke-width="63" stroke-opacity="1" stroke-miterlimit="4"/><g transform="matrix(1, 0, 0, 1, 75, 6)"><g clip-path="url(#e043a23bcd)"><g fill="#3b5e52" fill-opacity="1"><g transform="translate(0.866096, 288.770181)"><g><path d="M 115.28125 3.0625 C 94.945312 3.0625 77.066406 -1.484375 61.640625 -10.578125 C 46.222656 -19.671875 34.207031 -32.554688 25.59375 -49.234375 C 16.988281 -65.921875 12.6875 -85.648438 12.6875 -108.421875 C 12.6875 -131.859375 17.160156 -151.941406 26.109375 -168.671875 C 35.066406 -185.410156 47.207031 -198.226562 62.53125 -207.125 C 77.851562 -216.03125 95.144531 -220.484375 114.40625 -220.484375 C 126.65625 -220.484375 138.109375 -218.707031 148.765625 -215.15625 C 159.421875 -211.601562 168.878906 -206.519531 177.140625 -199.90625 C 185.410156 -193.289062 192.195312 -185.484375 197.5 -176.484375 C 202.800781 -167.492188 206.179688 -157.550781 207.640625 -146.65625 L 162.265625 -146.65625 C 160.804688 -152 158.6875 -156.757812 155.90625 -160.9375 C 153.132812 -165.125 149.753906 -168.722656 145.765625 -171.734375 C 141.785156 -174.753906 137.238281 -177.039062 132.125 -178.59375 C 127.019531 -180.15625 121.351562 -180.9375 115.125 -180.9375 C 103.75 -180.9375 93.753906 -178.113281 85.140625 -172.46875 C 76.535156 -166.832031 69.847656 -158.640625 65.078125 -147.890625 C 60.316406 -137.140625 57.9375 -124.128906 57.9375 -108.859375 C 57.9375 -93.585938 60.289062 -80.550781 65 -69.75 C 69.71875 -58.945312 76.40625 -50.703125 85.0625 -45.015625 C 93.726562 -39.328125 103.945312 -36.484375 115.71875 -36.484375 C 126.125 -36.484375 135.117188 -38.398438 142.703125 -42.234375 C 150.296875 -46.078125 156.109375 -51.5 160.140625 -58.5 C 164.179688 -65.507812 166.203125 -73.734375 166.203125 -83.171875 L 175.828125 -81.859375 L 119.078125 -81.859375 L 119.078125 -115.71875 L 209.6875 -115.71875 L 209.6875 -88.421875 C 209.6875 -69.648438 205.625 -53.429688 197.5 -39.765625 C 189.375 -26.097656 178.207031 -15.539062 164 -8.09375 C 149.800781 -0.65625 133.5625 3.0625 115.28125 3.0625 Z M 115.28125 3.0625 "/></g></g></g></g></g><path stroke-linecap="butt" transform="matrix(-0.370414, -0.652145, 0.652145, -0.370414, 284.193588, 403.304494)" fill="none" stroke-linejoin="miter" d="M 0.000851331 30.000288 L 627.765449 30.002836 " stroke="#ffffff" stroke-width="60" stroke-opacity="1" stroke-miterlimit="4"/></svg>