<svg xmlns="http://www.w3.org/2000/svg" xmlns:xlink="http://www.w3.org/1999/xlink" width="700" zoomAndPan="magnify" viewBox="0 0 525 187.499995" height="250" preserveAspectRatio="xMidYMid meet" version="1.0"><defs><g/><clipPath id="4e07c1a998"><rect x="0" width="107" y="0" height="181"/></clipPath><clipPath id="46638c8df0"><path d="M 0.699219 0 L 181 0 L 181 22 L 0.699219 22 Z M 0.699219 0 " clip-rule="nonzero"/></clipPath><clipPath id="f5b6f3b4aa"><path d="M 7 165 L 202 165 L 202 187 L 7 187 Z M 7 165 " clip-rule="nonzero"/></clipPath><clipPath id="0d5ec4a7bd"><path d="M 0.699219 0 L 280 0 L 280 187 L 0.699219 187 Z M 0.699219 0 " clip-rule="nonzero"/></clipPath><clipPath id="5a668719e2"><path d="M 0.699219 4 L 23 4 L 23 187 L 0.699219 187 Z M 0.699219 4 " clip-rule="nonzero"/></clipPath><clipPath id="8ec1858d14"><rect x="0" width="309" y="0" height="77"/></clipPath><clipPath id="33a6b5e726"><path d="M 212 101 L 524.300781 101 L 524.300781 160 L 212 160 Z M 212 101 " clip-rule="nonzero"/></clipPath><clipPath id="0ec9540a62"><rect x="0" width="313" y="0" height="59"/></clipPath><mask id="diag-cut">
<rect x="0" y="0" width="525" height="188" fill="white"/>
<g clip-path="url(#0d5ec4a7bd)">
<path stroke-linecap="butt" transform="matrix(-0.369429, -0.650411, 0.650411, -0.369429, 142.462557, 201.032258)" fill="none" stroke-linejoin="miter" d="M -0.0016084 14.999137 L 313.971831 14.997167 " stroke="black" stroke-width="30" stroke-opacity="1" stroke-miterlimit="4"/>
</g>
</mask></defs><g mask="url(#diag-cut)"><g transform="matrix(1, 0, 0, 1, 38, 3)"><g clip-path="url(#4e07c1a998)"><g fill="#ffffff" fill-opacity="1"><g transform="translate(0.541129, 143.89424)"><g><path d="M 57.5 1.53125 C 47.351562 1.53125 38.4375 -0.734375 30.75 -5.265625 C 23.0625 -9.804688 17.066406 -16.238281 12.765625 -24.5625 C 8.472656 -32.882812 6.328125 -42.722656 6.328125 -54.078125 C 6.328125 -65.773438 8.554688 -75.796875 13.015625 -84.140625 C 17.484375 -92.484375 23.539062 -98.875 31.1875 -103.3125 C 38.832031 -107.757812 47.457031 -109.984375 57.0625 -109.984375 C 63.175781 -109.984375 68.890625 -109.09375 74.203125 -107.3125 C 79.515625 -105.539062 84.234375 -103.003906 88.359375 -99.703125 C 92.484375 -96.410156 95.867188 -92.519531 98.515625 -88.03125 C 101.160156 -83.539062 102.847656 -78.578125 103.578125 -73.140625 L 80.9375 -73.140625 C 80.207031 -75.816406 79.148438 -78.195312 77.765625 -80.28125 C 76.390625 -82.363281 74.707031 -84.15625 72.71875 -85.65625 C 70.726562 -87.164062 68.457031 -88.304688 65.90625 -89.078125 C 63.351562 -89.859375 60.523438 -90.25 57.421875 -90.25 C 51.742188 -90.25 46.757812 -88.84375 42.46875 -86.03125 C 38.175781 -83.21875 34.835938 -79.128906 32.453125 -73.765625 C 30.078125 -68.398438 28.890625 -61.910156 28.890625 -54.296875 C 28.890625 -46.679688 30.066406 -40.179688 32.421875 -34.796875 C 34.773438 -29.410156 38.109375 -25.296875 42.421875 -22.453125 C 46.742188 -19.617188 51.84375 -18.203125 57.71875 -18.203125 C 62.90625 -18.203125 67.390625 -19.160156 71.171875 -21.078125 C 74.960938 -22.992188 77.863281 -25.695312 79.875 -29.1875 C 81.894531 -32.675781 82.90625 -36.773438 82.90625 -41.484375 L 87.703125 -40.828125 L 59.390625 -40.828125 L 59.390625 -57.71875 L 104.59375 -57.71875 L 104.59375 -44.109375 C 104.59375 -34.742188 102.566406 -26.648438 98.515625 -19.828125 C 94.460938 -13.015625 88.894531 -7.75 81.8125 -4.03125 C 74.726562 -0.320312 66.625 1.53125 57.5 1.53125 Z M 57.5 1.53125 "/></g></g></g></g></g><g clip-path="url(#46638c8df0)"><path stroke-linecap="butt" transform="matrix(0.748005, 0, 0, 0.748005, 0.698146, -2.477183)" fill="none" stroke-linejoin="miter" d="M 0.00143455 16.00172 L 224.577895 16.00172 " stroke="#ffffff" stroke-width="32" stroke-opacity="1" stroke-miterlimit="4"/></g><g clip-path="url(#f5b6f3b4aa)"><path stroke-linecap="butt" transform="matrix(0.748005, 0, 0, 0.748005, 19.112797, 165.542331)" fill="none" stroke-linejoin="miter" d="M 0.000647188 16.001743 L 227.934996 16.001743 " stroke="#ffffff" stroke-width="32" stroke-opacity="1" stroke-miterlimit="4"/></g><g clip-path="url(#5a668719e2)"><path stroke-linecap="butt" transform="matrix(0, -0.748005, 0.748005, 0, -1.780826, 186.999505)" fill="none" stroke-linejoin="miter" d="M -0.000662105 16.000323 L 228.194798 16.000323 " stroke="#ffffff" stroke-width="32" stroke-opacity="1" stroke-miterlimit="4"/></g><path stroke-linecap="butt" transform="matrix(0, -0.748005, 0.748005, 0, 165.638772, 171.224308)" fill="none" stroke-linejoin="miter" d="M 0.00220853 15.998145 L 228.907891 15.998145 " stroke="#ffffff" stroke-width="32" stroke-opacity="1" stroke-miterlimit="4"/><g transform="matrix(1, 0, 0, 1, 212, 27)"><g clip-path="url(#8ec1858d14)"><g fill="#ffffff" fill-opacity="1"><g transform="translate(0.502207, 61.338348)"><g><path d="M 24.359375 0.640625 C 20.054688 0.640625 16.273438 -0.316406 13.015625 -2.234375 C 9.765625 -4.160156 7.226562 -6.882812 5.40625 -10.40625 C 3.59375 -13.925781 2.6875 -18.09375 2.6875 -22.90625 C 2.6875 -27.863281 3.628906 -32.109375 5.515625 -35.640625 C 7.410156 -39.171875 9.972656 -41.875 13.203125 -43.75 C 16.441406 -45.632812 20.097656 -46.578125 24.171875 -46.578125 C 26.765625 -46.578125 29.1875 -46.203125 31.4375 -45.453125 C 33.6875 -44.703125 35.679688 -43.628906 37.421875 -42.234375 C 39.171875 -40.835938 40.601562 -39.1875 41.71875 -37.28125 C 42.84375 -35.382812 43.5625 -33.285156 43.875 -30.984375 L 34.28125 -30.984375 C 33.976562 -32.117188 33.53125 -33.125 32.9375 -34 C 32.351562 -34.882812 31.640625 -35.644531 30.796875 -36.28125 C 29.953125 -36.925781 28.988281 -37.410156 27.90625 -37.734375 C 26.832031 -38.066406 25.640625 -38.234375 24.328125 -38.234375 C 21.921875 -38.234375 19.804688 -37.632812 17.984375 -36.4375 C 16.171875 -35.25 14.757812 -33.519531 13.75 -31.25 C 12.738281 -28.976562 12.234375 -26.226562 12.234375 -23 C 12.234375 -19.769531 12.734375 -17.015625 13.734375 -14.734375 C 14.734375 -12.453125 16.144531 -10.707031 17.96875 -9.5 C 19.800781 -8.300781 21.960938 -7.703125 24.453125 -7.703125 C 26.648438 -7.703125 28.550781 -8.109375 30.15625 -8.921875 C 31.757812 -9.734375 32.984375 -10.878906 33.828125 -12.359375 C 34.679688 -13.835938 35.109375 -15.578125 35.109375 -17.578125 L 37.15625 -17.296875 L 25.15625 -17.296875 L 25.15625 -24.453125 L 44.296875 -24.453125 L 44.296875 -18.6875 C 44.296875 -14.71875 43.4375 -11.285156 41.71875 -8.390625 C 40.007812 -5.503906 37.65625 -3.273438 34.65625 -1.703125 C 31.65625 -0.140625 28.222656 0.640625 24.359375 0.640625 Z M 24.359375 0.640625 "/></g></g></g><g fill="#ffffff" fill-opacity="1"><g transform="translate(47.666577, 61.338348)"><g><path d="M 3.984375 0 L 3.984375 -45.9375 L 22.015625 -45.9375 C 25.484375 -45.9375 28.453125 -45.316406 30.921875 -44.078125 C 33.390625 -42.847656 35.273438 -41.113281 36.578125 -38.875 C 37.878906 -36.632812 38.53125 -33.992188 38.53125 -30.953125 C 38.53125 -27.929688 37.863281 -25.320312 36.53125 -23.125 C 35.195312 -20.925781 33.273438 -19.238281 30.765625 -18.0625 C 28.253906 -16.894531 25.234375 -16.3125 21.703125 -16.3125 L 9.59375 -16.3125 L 9.59375 -23.921875 L 20.5625 -23.921875 C 22.414062 -23.921875 23.957031 -24.191406 25.1875 -24.734375 C 26.414062 -25.285156 27.34375 -26.082031 27.96875 -27.125 C 28.601562 -28.175781 28.921875 -29.453125 28.921875 -30.953125 C 28.921875 -32.492188 28.601562 -33.789062 27.96875 -34.84375 C 27.34375 -35.90625 26.414062 -36.71875 25.1875 -37.28125 C 23.957031 -37.851562 22.40625 -38.140625 20.53125 -38.140625 L 13.40625 -38.140625 L 13.40625 0 Z M 29.65625 0 L 18.625 -20.875 L 28.796875 -20.875 L 40.046875 0 Z M 29.65625 0 "/></g></g></g><g fill="#ffffff" fill-opacity="1"><g transform="translate(89.035587, 61.338348)"><g><path d="M 22.90625 0.640625 C 19.101562 0.640625 15.78125 -0.0546875 12.9375 -1.453125 C 10.101562 -2.847656 7.898438 -4.800781 6.328125 -7.3125 C 4.765625 -9.832031 3.984375 -12.757812 3.984375 -16.09375 L 3.984375 -45.9375 L 13.34375 -45.9375 L 13.34375 -16.859375 C 13.34375 -15.078125 13.738281 -13.488281 14.53125 -12.09375 C 15.320312 -10.707031 16.4375 -9.617188 17.875 -8.828125 C 19.320312 -8.035156 21 -7.640625 22.90625 -7.640625 C 24.84375 -7.640625 26.523438 -8.035156 27.953125 -8.828125 C 29.378906 -9.617188 30.488281 -10.707031 31.28125 -12.09375 C 32.070312 -13.488281 32.46875 -15.078125 32.46875 -16.859375 L 32.46875 -45.9375 L 41.875 -45.9375 L 41.875 -16.09375 C 41.875 -12.757812 41.085938 -9.832031 39.515625 -7.3125 C 37.941406 -4.800781 35.726562 -2.847656 32.875 -1.453125 C 30.03125 -0.0546875 26.707031 0.640625 22.90625 0.640625 Z M 29.75 -50.5625 C 28.4375 -50.5625 27.320312 -51.007812 26.40625 -51.90625 C 25.488281 -52.800781 25.03125 -53.875 25.03125 -55.125 C 25.03125 -56.40625 25.488281 -57.484375 26.40625 -58.359375 C 27.320312 -59.242188 28.4375 -59.6875 29.75 -59.6875 C 31.0625 -59.6875 32.171875 -59.242188 33.078125 -58.359375 C 33.984375 -57.484375 34.4375 -56.40625 34.4375 -55.125 C 34.4375 -53.851562 33.984375 -52.773438 33.078125 -51.890625 C 32.171875 -51.003906 31.0625 -50.5625 29.75 -50.5625 Z M 16.0625 -50.5625 C 14.769531 -50.5625 13.664062 -51.007812 12.75 -51.90625 C 11.832031 -52.800781 11.375 -53.875 11.375 -55.125 C 11.375 -56.40625 11.832031 -57.484375 12.75 -58.359375 C 13.664062 -59.242188 14.769531 -59.6875 16.0625 -59.6875 C 17.375 -59.6875 18.484375 -59.242188 19.390625 -58.359375 C 20.296875 -57.484375 20.75 -56.40625 20.75 -55.125 C 20.75 -53.851562 20.296875 -52.773438 19.390625 -51.890625 C 18.484375 -51.003906 17.375 -50.5625 16.0625 -50.5625 Z M 16.0625 -50.5625 "/></g></g></g><g fill="#ffffff" fill-opacity="1"><g transform="translate(134.843596, 61.338348)"><g><path d="M 3.984375 0 L 3.984375 -45.9375 L 14.359375 -45.9375 L 28.953125 -22.625 C 29.609375 -21.539062 30.3125 -20.320312 31.0625 -18.96875 C 31.8125 -17.625 32.582031 -16.128906 33.375 -14.484375 C 34.164062 -12.847656 34.953125 -11.0625 35.734375 -9.125 L 34.71875 -8.578125 C 34.59375 -10.210938 34.476562 -11.976562 34.375 -13.875 C 34.269531 -15.78125 34.1875 -17.609375 34.125 -19.359375 C 34.0625 -21.109375 34.03125 -22.566406 34.03125 -23.734375 L 34.03125 -45.9375 L 43.625 -45.9375 L 43.625 0 L 33.203125 0 L 19.984375 -21.125 C 19.097656 -22.5625 18.238281 -24.015625 17.40625 -25.484375 C 16.570312 -26.953125 15.695312 -28.585938 14.78125 -30.390625 C 13.863281 -32.203125 12.800781 -34.3125 11.59375 -36.71875 L 12.890625 -36.96875 C 13.015625 -34.726562 13.128906 -32.59375 13.234375 -30.5625 C 13.347656 -28.539062 13.4375 -26.71875 13.5 -25.09375 C 13.5625 -23.46875 13.59375 -22.15625 13.59375 -21.15625 L 13.59375 0 Z M 3.984375 0 "/></g></g></g><g fill="#ffffff" fill-opacity="1"><g transform="translate(182.439535, 61.338348)"><g><path d="M 20.15625 0 L 8.265625 0 L 8.265625 -8.078125 L 19.703125 -8.078125 C 22.679688 -8.078125 25.171875 -8.609375 27.171875 -9.671875 C 29.179688 -10.742188 30.6875 -12.382812 31.6875 -14.59375 C 32.695312 -16.800781 33.203125 -19.601562 33.203125 -23 C 33.203125 -26.375 32.695312 -29.160156 31.6875 -31.359375 C 30.6875 -33.554688 29.1875 -35.1875 27.1875 -36.25 C 25.195312 -37.320312 22.722656 -37.859375 19.765625 -37.859375 L 8.046875 -37.859375 L 8.046875 -45.9375 L 20.3125 -45.9375 C 24.9375 -45.9375 28.910156 -45.015625 32.234375 -43.171875 C 35.554688 -41.335938 38.113281 -38.703125 39.90625 -35.265625 C 41.707031 -31.835938 42.609375 -27.75 42.609375 -23 C 42.609375 -18.226562 41.710938 -14.125 39.921875 -10.6875 C 38.140625 -7.257812 35.566406 -4.617188 32.203125 -2.765625 C 28.835938 -0.921875 24.820312 0 20.15625 0 Z M 13.40625 -45.9375 L 13.40625 0 L 3.984375 0 L 3.984375 -45.9375 Z M 13.40625 -45.9375 "/></g></g></g><g fill="#ffffff" fill-opacity="1"><g transform="translate(227.723506, 61.338348)"><g><path d="M 3.984375 0 L 3.984375 -45.9375 L 35.234375 -45.9375 L 35.234375 -38.046875 L 13.40625 -38.046875 L 13.40625 -27.0625 L 33.578125 -27.0625 L 33.578125 -19.328125 L 13.40625 -19.328125 L 13.40625 -7.890625 L 35.265625 -7.890625 L 35.265625 0 Z M 3.984375 0 "/></g></g></g><g fill="#ffffff" fill-opacity="1"><g transform="translate(266.07153, 61.338348)"><g><path d="M 3.984375 0 L 3.984375 -45.9375 L 22.015625 -45.9375 C 25.484375 -45.9375 28.453125 -45.316406 30.921875 -44.078125 C 33.390625 -42.847656 35.273438 -41.113281 36.578125 -38.875 C 37.878906 -36.632812 38.53125 -33.992188 38.53125 -30.953125 C 38.53125 -27.929688 37.863281 -25.320312 36.53125 -23.125 C 35.195312 -20.925781 33.273438 -19.238281 30.765625 -18.0625 C 28.253906 -16.894531 25.234375 -16.3125 21.703125 -16.3125 L 9.59375 -16.3125 L 9.59375 -23.921875 L 20.5625 -23.921875 C 22.414062 -23.921875 23.957031 -24.191406 25.1875 -24.734375 C 26.414062 -25.285156 27.34375 -26.082031 27.96875 -27.125 C 28.601562 -28.175781 28.921875 -29.453125 28.921875 -30.953125 C 28.921875 -32.492188 28.601562 -33.789062 27.96875 -34.84375 C 27.34375 -35.90625 26.414062 -36.71875 25.1875 -37.28125 C 23.957031 -37.851562 22.40625 -38.140625 20.53125 -38.140625 L 13.40625 -38.140625 L 13.40625 0 Z M 29.65625 0 L 18.625 -20.875 L 28.796875 -20.875 L 40.046875 0 Z M 29.65625 0 "/></g></g></g></g></g><g clip-path="url(#33a6b5e726)"><g transform="matrix(1, 0, 0, 1, 212, 101)"><g clip-path="url(#0ec9540a62)"><g fill="#ffffff" fill-opacity="1"><g transform="translate(0.502207, 46.183696)"><g><path d="M 4.015625 0 L 4.015625 -34.53125 L 10.125 -34.53125 L 18.703125 -12.625 C 18.898438 -12.113281 19.125 -11.476562 19.375 -10.71875 C 19.632812 -9.96875 19.910156 -9.160156 20.203125 -8.296875 C 20.492188 -7.429688 20.769531 -6.570312 21.03125 -5.71875 C 21.300781 -4.875 21.523438 -4.101562 21.703125 -3.40625 L 20.734375 -3.40625 C 20.929688 -4.070312 21.160156 -4.820312 21.421875 -5.65625 C 21.691406 -6.488281 21.96875 -7.335938 22.25 -8.203125 C 22.539062 -9.078125 22.820312 -9.90625 23.09375 -10.6875 C 23.363281 -11.46875 23.597656 -12.113281 23.796875 -12.625 L 32.234375 -34.53125 L 38.375 -34.53125 L 38.375 0 L 34.078125 0 L 34.078125 -19.78125 C 34.078125 -20.5 34.082031 -21.304688 34.09375 -22.203125 C 34.101562 -23.109375 34.117188 -24.046875 34.140625 -25.015625 C 34.160156 -25.992188 34.179688 -26.988281 34.203125 -28 C 34.234375 -29.007812 34.253906 -29.988281 34.265625 -30.9375 L 34.6875 -30.9375 C 34.363281 -29.863281 34.015625 -28.785156 33.640625 -27.703125 C 33.273438 -26.628906 32.921875 -25.585938 32.578125 -24.578125 C 32.234375 -23.578125 31.910156 -22.664062 31.609375 -21.84375 C 31.316406 -21.03125 31.0625 -20.34375 30.84375 -19.78125 L 23.046875 0 L 19.328125 0 L 11.421875 -19.78125 C 11.203125 -20.320312 10.945312 -20.992188 10.65625 -21.796875 C 10.375 -22.609375 10.0625 -23.503906 9.71875 -24.484375 C 9.375 -25.472656 9.007812 -26.515625 8.625 -27.609375 C 8.25 -28.710938 7.867188 -29.820312 7.484375 -30.9375 L 7.96875 -30.9375 C 8 -30.070312 8.023438 -29.144531 8.046875 -28.15625 C 8.078125 -27.175781 8.097656 -26.1875 8.109375 -25.1875 C 8.128906 -24.195312 8.144531 -23.238281 8.15625 -22.3125 C 8.164062 -21.382812 8.171875 -20.539062 8.171875 -19.78125 L 8.171875 0 Z M 4.015625 0 "/></g></g></g><g fill="#ffffff" fill-opacity="1"><g transform="translate(46.586001, 46.183696)"><g><path d="M 1.046875 0 L 13.625 -34.53125 L 18.625 -34.53125 L 31.296875 0 L 26.71875 0 L 19.421875 -20.546875 C 18.953125 -21.847656 18.421875 -23.425781 17.828125 -25.28125 C 17.234375 -27.144531 16.507812 -29.539062 15.65625 -32.46875 L 16.5625 -32.46875 C 15.71875 -29.53125 14.988281 -27.113281 14.375 -25.21875 C 13.769531 -23.320312 13.257812 -21.765625 12.84375 -20.546875 L 5.65625 0 Z M 7.421875 -9.640625 L 7.421875 -13.46875 L 24.953125 -13.46875 L 24.953125 -9.640625 Z M 7.421875 -9.640625 "/></g></g></g><g fill="#ffffff" fill-opacity="1"><g transform="translate(82.636291, 46.183696)"><g><path d="M 4.015625 0 L 4.015625 -34.53125 L 16.03125 -34.53125 C 18.65625 -34.53125 20.835938 -34.078125 22.578125 -33.171875 C 24.328125 -32.265625 25.632812 -31.007812 26.5 -29.40625 C 27.363281 -27.8125 27.796875 -25.976562 27.796875 -23.90625 C 27.796875 -21.820312 27.351562 -19.992188 26.46875 -18.421875 C 25.59375 -16.847656 24.28125 -15.625 22.53125 -14.75 C 20.789062 -13.875 18.609375 -13.4375 15.984375 -13.4375 L 6.4375 -13.4375 L 6.4375 -17.3125 L 15.875 -17.3125 C 17.644531 -17.3125 19.085938 -17.578125 20.203125 -18.109375 C 21.316406 -18.640625 22.140625 -19.398438 22.671875 -20.390625 C 23.203125 -21.378906 23.46875 -22.550781 23.46875 -23.90625 C 23.46875 -25.28125 23.203125 -26.472656 22.671875 -27.484375 C 22.140625 -28.503906 21.3125 -29.296875 20.1875 -29.859375 C 19.070312 -30.421875 17.617188 -30.703125 15.828125 -30.703125 L 8.359375 -30.703125 L 8.359375 0 Z M 23.890625 0 L 15.546875 -15.546875 L 20.453125 -15.546875 L 28.9375 0 Z M 23.890625 0 "/></g></g></g><g fill="#ffffff" fill-opacity="1"><g transform="translate(116.763306, 46.183696)"><g><path d="M 6.96875 -9.875 L 6.96875 -14.734375 C 7.757812 -15.785156 8.546875 -16.789062 9.328125 -17.75 C 10.117188 -18.707031 10.921875 -19.648438 11.734375 -20.578125 C 12.554688 -21.515625 13.394531 -22.441406 14.25 -23.359375 L 24.609375 -34.53125 L 30.3125 -34.53125 L 15.578125 -18.75 L 15.34375 -18.765625 Z M 4.015625 0 L 4.015625 -34.53125 L 8.359375 -34.53125 L 8.359375 -22.65625 L 8.296875 -15.25 L 8.359375 -13.109375 L 8.359375 0 Z M 25.1875 0 L 12.65625 -17.609375 L 15.34375 -21 L 30.328125 0 Z M 25.1875 0 "/></g></g></g><g fill="#ffffff" fill-opacity="1"><g transform="translate(151.956236, 46.183696)"><g><path d="M 4.015625 0 L 4.015625 -34.53125 L 25.34375 -34.53125 L 25.34375 -30.671875 L 8.359375 -30.671875 L 8.359375 -19.421875 L 24.171875 -19.421875 L 24.171875 -15.546875 L 8.359375 -15.546875 L 8.359375 -3.84375 L 25.515625 -3.84375 L 25.515625 0 Z M 4.015625 0 "/></g></g></g><g fill="#ffffff" fill-opacity="1"><g transform="translate(183.951423, 46.183696)"><g><path d="M 2.015625 -30.671875 L 2.015625 -34.53125 L 28.25 -34.53125 L 28.25 -30.671875 L 17.328125 -30.671875 L 17.328125 0 L 12.96875 0 L 12.96875 -30.671875 Z M 2.015625 -30.671875 "/></g></g></g><g fill="#ffffff" fill-opacity="1"><g transform="translate(217.916228, 46.183696)"><g><path d="M 8.359375 -34.53125 L 8.359375 0 L 4.015625 0 L 4.015625 -34.53125 Z M 8.359375 -34.53125 "/></g></g></g><g fill="#ffffff" fill-opacity="1"><g transform="translate(233.992221, 46.183696)"><g><path d="M 4.015625 0 L 4.015625 -34.53125 L 9.109375 -34.53125 L 23.1875 -12.34375 C 23.550781 -11.800781 23.984375 -11.09375 24.484375 -10.21875 C 24.992188 -9.351562 25.546875 -8.378906 26.140625 -7.296875 C 26.742188 -6.210938 27.328125 -5.070312 27.890625 -3.875 L 27.3125 -3.6875 C 27.207031 -4.90625 27.128906 -6.109375 27.078125 -7.296875 C 27.023438 -8.484375 26.988281 -9.582031 26.96875 -10.59375 C 26.957031 -11.613281 26.953125 -12.445312 26.953125 -13.09375 L 26.953125 -34.53125 L 31.28125 -34.53125 L 31.28125 0 L 26.140625 0 L 13.59375 -19.71875 C 13.070312 -20.550781 12.519531 -21.445312 11.9375 -22.40625 C 11.363281 -23.363281 10.703125 -24.5 9.953125 -25.8125 C 9.203125 -27.125 8.300781 -28.707031 7.25 -30.5625 L 8 -30.8125 C 8.070312 -29.082031 8.132812 -27.492188 8.1875 -26.046875 C 8.238281 -24.609375 8.28125 -23.351562 8.3125 -22.28125 C 8.34375 -21.21875 8.359375 -20.378906 8.359375 -19.765625 L 8.359375 0 Z M 4.015625 0 "/></g></g></g><g fill="#ffffff" fill-opacity="1"><g transform="translate(272.985356, 46.183696)"><g><path d="M 18.1875 0.484375 C 15.113281 0.484375 12.414062 -0.242188 10.09375 -1.703125 C 7.769531 -3.160156 5.953125 -5.210938 4.640625 -7.859375 C 3.328125 -10.515625 2.671875 -13.640625 2.671875 -17.234375 C 2.671875 -20.867188 3.320312 -24.007812 4.625 -26.65625 C 5.925781 -29.300781 7.734375 -31.351562 10.046875 -32.8125 C 12.359375 -34.28125 15.003906 -35.015625 17.984375 -35.015625 C 19.804688 -35.015625 21.507812 -34.738281 23.09375 -34.1875 C 24.6875 -33.632812 26.109375 -32.851562 27.359375 -31.84375 C 28.609375 -30.832031 29.648438 -29.628906 30.484375 -28.234375 C 31.328125 -26.847656 31.894531 -25.316406 32.1875 -23.640625 L 27.734375 -23.640625 C 27.390625 -24.742188 26.921875 -25.75 26.328125 -26.65625 C 25.734375 -27.5625 25.023438 -28.332031 24.203125 -28.96875 C 23.378906 -29.613281 22.441406 -30.109375 21.390625 -30.453125 C 20.347656 -30.804688 19.210938 -30.984375 17.984375 -30.984375 C 15.898438 -30.984375 14.019531 -30.445312 12.34375 -29.375 C 10.675781 -28.300781 9.351562 -26.738281 8.375 -24.6875 C 7.40625 -22.644531 6.921875 -20.160156 6.921875 -17.234375 C 6.921875 -14.347656 7.410156 -11.882812 8.390625 -9.84375 C 9.378906 -7.800781 10.71875 -6.238281 12.40625 -5.15625 C 14.09375 -4.082031 16.019531 -3.546875 18.1875 -3.546875 C 20.132812 -3.546875 21.859375 -3.960938 23.359375 -4.796875 C 24.859375 -5.628906 26.035156 -6.8125 26.890625 -8.34375 C 27.742188 -9.875 28.171875 -11.671875 28.171875 -13.734375 L 29.5 -13.515625 L 19.203125 -13.515625 L 19.203125 -17.328125 L 32.4375 -17.328125 L 32.4375 -13.578125 C 32.4375 -10.753906 31.816406 -8.285156 30.578125 -6.171875 C 29.347656 -4.066406 27.660156 -2.429688 25.515625 -1.265625 C 23.378906 -0.0976562 20.9375 0.484375 18.1875 0.484375 Z M 18.1875 0.484375 "/></g></g></g></g></g></g></g></svg>