<svg xmlns="http://www.w3.org/2000/svg" width="32" height="32" viewBox="0 0 32 32">
  <rect width="32" height="32" rx="6" fill="#3b5e52"/>
  <g transform="translate(5.5, 5) scale(0.092)">
    <g fill="#ffffff">
      <g transform="translate(0.87, 188.77)">
        <path d="M 115.28 3.06 C 94.95 3.06 77.07 -1.48 61.64 -10.58 C 46.22 -19.67 34.21 -32.55 25.59 -49.23 C 16.99 -65.92 12.69 -85.65 12.69 -108.42 C 12.69 -131.86 17.16 -151.94 26.11 -168.67 C 35.07 -185.41 47.21 -198.23 62.53 -207.13 C 77.85 -216.03 95.14 -220.48 114.41 -220.48 C 126.66 -220.48 138.11 -218.71 148.77 -215.16 C 159.42 -211.6 168.88 -206.52 177.14 -199.91 C 185.41 -193.29 192.2 -185.48 197.5 -176.48 C 202.8 -167.49 206.18 -157.55 207.64 -146.66 L 162.27 -146.66 C 160.8 -152 158.69 -156.76 155.91 -160.94 C 153.13 -165.13 149.75 -168.72 145.77 -171.73 C 141.79 -174.75 137.24 -177.04 132.13 -178.59 C 127.02 -180.16 121.35 -180.94 115.13 -180.94 C 103.75 -180.94 93.75 -178.11 85.14 -172.47 C 76.54 -166.83 69.85 -158.64 65.08 -147.89 C 60.32 -137.14 57.94 -124.13 57.94 -108.86 C 57.94 -93.59 60.29 -80.55 65 -69.75 C 69.72 -58.95 76.41 -50.7 85.06 -45.02 C 93.73 -39.33 103.95 -36.48 115.72 -36.48 C 126.13 -36.48 135.12 -38.4 142.7 -42.23 C 150.3 -46.08 156.11 -51.5 160.14 -58.5 C 164.18 -65.51 166.2 -73.73 166.2 -83.17 L 175.83 -81.86 L 119.08 -81.86 L 119.08 -115.72 L 209.69 -115.72 L 209.69 -88.42 C 209.69 -69.65 205.63 -53.43 197.5 -39.77 C 189.38 -26.1 178.21 -15.54 164 -8.09 C 149.8 -0.66 133.56 3.06 115.28 3.06 Z"/>
      </g>
    </g>
  </g>
</svg>
